<?xml version="1.0" standalone="no"?>
<!DOCTYPE svg PUBLIC "-//W3C//DTD SVG 20010904//EN"
 "http://www.w3.org/TR/2001/REC-SVG-20010904/DTD/svg10.dtd">
<svg version="1.0" xmlns="http://www.w3.org/2000/svg"
 width="180.000000pt" height="180.000000pt" viewBox="0 0 180.000000 180.000000"
 preserveAspectRatio="xMidYMid meet">
<metadata>
Created by potrace 1.14, written by Peter Selinger 2001-2017
</metadata>
<g transform="translate(0.000000,180.000000) scale(0.100000,-0.100000)"
fill="#000000" stroke="none">
<path d="M1512 1780 c-77 -18 -142 -129 -126 -217 11 -63 49 -119 97 -142 54
-26 80 -26 134 0 115 55 133 233 33 323 -22 20 -49 36 -59 36 -11 0 -25 2 -33
4 -7 2 -28 0 -46 -4z"/>
<path d="M630 639 c-283 -237 -523 -441 -532 -452 -30 -38 -22 -68 31 -121 62
-61 83 -62 158 -5 75 56 679 544 715 577 15 14 31 23 34 19 4 -3 -8 -102 -25
-219 -17 -117 -31 -218 -31 -225 0 -6 36 -50 81 -97 56 -60 88 -86 104 -86 31
0 507 368 503 388 -8 38 -33 33 -243 -46 -115 -44 -213 -77 -216 -73 -4 3 13
141 37 306 48 333 51 371 29 402 -21 29 -77 63 -106 63 -17 0 -175 -126 -539
-431z"/>
</g>
</svg>
